<svg version="1.1" id="Layer_1" x="0" y="0" viewBox="0 0 57.4 57.4" style="enable-background:new 0 0 57.4 57.4" xml:space="preserve" xmlns="http://www.w3.org/2000/svg">
    <style type="text/css" id="style1">
        .st0,.st1{fill:#2e2e2e}.st1{fill-rule:evenodd;clip-rule:evenodd}.st2,.st3{fill:#fff}.st3{fill-rule:evenodd;clip-rule:evenodd}.st4{fill:#355146}
    </style>
    <g id="g4" transform="translate(-29.325 -29.376) scale(2.02535)">
        <g id="g3">
            <path d="M24.4 31c.6 0 1.9 0 3.7-.8 2.1-.9 6.2-2.4 9.2-4 2.1-1.1 3-2.6 3-4.6 0-2.7-2.2-5-5-5H23.8c-3.9 0-7.1 3.2-7.1 7.1-.1 4.1 2.9 7.3 7.7 7.3z" id="path1" style="fill-rule:evenodd;clip-rule:evenodd;fill:#355146"/>
            <path d="M26.3 35.9c0-1.9 1.2-3.7 3-4.4l3.6-1.5c3.7-1.5 7.7 1.2 7.7 5.1 0 3.1-2.5 5.6-5.6 5.6h-3.9c-2.6 0-4.8-2.1-4.8-4.8z" id="path2" style="fill-rule:evenodd;clip-rule:evenodd;fill:#d9a6e5"/>
            <path d="M20.7 31.9c-2.3 0-4.1 1.8-4.1 4.1v.5c0 2.3 1.8 4.1 4.1 4.1s4.1-1.8 4.1-4.1V36c.1-2.2-1.8-4.1-4.1-4.1Z" id="path3" style="fill:#ff7759"/>
        </g>
    </g>
</svg>
