<svg width="100%" height="100%" viewBox="0 0 256 256" fill="currentColor" xmlns="http://www.w3.org/2000/svg">
  <path opacity="0.4"
    d="M123.714 23.072C126.481 21.5951 129.823 21.6442 132.552 23.2195L216.467 71.6677L216.728 71.824C219.39 73.4819 221.018 76.4008 221.019 79.5515V176.448C221.018 179.7 219.283 182.705 216.467 184.332L132.552 232.78C129.735 234.406 126.265 234.406 123.448 232.78L39.5332 184.332C36.7167 182.705 34.9816 179.7 34.9814 176.448V79.5515L34.9863 79.2478C35.0908 76.1131 36.8047 73.2433 39.5332 71.6677L123.448 23.2195L123.714 23.072ZM53.1895 171.191L120.196 209.877V132.49L53.1895 93.8045V171.191ZM135.804 132.518V209.877L202.811 171.191V93.8318L135.804 132.518ZM61.0049 80.2947L128.024 118.988L195.019 80.3084L128 41.616L61.0049 80.2947Z" />
</svg>
