<svg width="100%" height="100%" viewBox="0 0 256 256" xmlns="http://www.w3.org/2000/svg" fill="none">
 <defs>
  <linearGradient id="paint0_linear_2043_180" x1="0.24419" y1="0.75581" x2="0.75194" y2="0.25194">
   <stop stop-color="#446EFF"/>
   <stop offset="0.36661" stop-color="#2E96FF"/>
   <stop offset="0.83221" stop-color="#B1C5FF"/>
  </linearGradient>
 </defs>
 <g>
  <path stroke="null" fill-rule="evenodd" clip-rule="evenodd" d="m131.12136,72.45374c-0.99215,-3.37106 -1.74774,-6.81835 -2.2668,-10.34186l0,-10.16275c19.7514,0.2174 37.69592,7.9638 51.09846,20.50461l-48.83167,0zm-6.34338,0c1.0417,-3.42934 1.83098,-6.93747 2.36747,-10.52473l0,-9.97987c-19.75156,0.2174 -37.69592,7.9638 -51.09846,20.50461l48.731,0zm-49.90738,1.70912l49.36491,0c-0.71646,2.16545 -1.53547,4.29911 -2.45668,6.40064c-3.95011,9.30187 -9.34083,17.41367 -16.17234,24.33525l-30.73589,-30.73589zm-2.41686,-1.70912l-27.34585,0l0,1.70912l26.77672,0c-13.22565,13.78179 -21.42343,32.42552 -21.64476,52.9826l-32.47782,0l0,1.70912l32.47782,0c0.22133,20.55708 8.41911,39.20079 21.64476,52.9826l-26.77672,0l0,1.70912l27.34585,0l0,27.34585l1.70912,0l0,-26.77672c13.78179,13.22514 32.42552,21.42376 52.9826,21.64424l0,32.47833l1.70912,0l0,-32.47833c20.55708,-0.22048 39.20079,-8.41911 52.9826,-21.64424l0,26.77672l1.70912,0l0,-27.34585l27.34585,0l0,-1.70912l-26.77672,0c13.22514,-13.78179 21.42376,-32.42552 21.64424,-52.9826l32.47833,0l0,-1.70912l-32.47833,0c-0.22048,-20.55708 -8.41911,-39.20079 -21.64424,-52.9826l26.77672,0l0,-1.70912l-27.34585,0l0,-27.34585l-1.70912,0l0,26.77672c-13.78179,-13.22565 -32.42552,-21.42343 -52.9826,-21.64476l0,-32.47782l-1.70912,0l0,32.47782c-20.55708,0.22133 -39.20079,8.41911 -52.9826,21.64476l0,-26.77672l-1.70912,0l0,27.34585zm56.40082,131.59679c19.75156,-0.21705 37.69592,-7.96277 51.09846,-20.50426l-48.83167,0c-0.99215,3.37106 -1.74774,6.81767 -2.2668,10.34186l0,10.1624zm-1.70912,-9.97953c-0.53649,-3.58743 -1.32576,-7.0954 -2.36747,-10.52473l-48.731,0c13.40255,12.54149 31.34689,20.28721 51.09846,20.50426l0,-9.97953zm-75.19631,-66.92556l10.16275,0c3.52352,-0.51906 6.9708,-1.27466 10.34186,-2.2668l0,-48.83167c-12.54081,13.40255 -20.28721,31.34689 -20.50461,51.09846zm9.98004,1.70912l-9.98004,0c0.2174,19.75156 7.9638,37.69592 20.50461,51.09846l0,-48.731c-3.42934,-1.0417 -6.93747,-1.83098 -10.52456,-2.36747l-0.00001,0zm142.12136,-1.70912c-0.21705,-19.75156 -7.96277,-37.69592 -20.50426,-51.09846l0,48.83167c3.37106,0.99215 6.81767,1.74774 10.34186,2.2668l10.1624,0zm-9.97953,1.70912c-3.58743,0.53649 -7.0954,1.32576 -10.52473,2.36747l0,48.731c12.54149,-13.40255 20.28721,-31.34706 20.50426,-51.09846l-9.97953,0zm-12.23385,52.27485l0,-49.36508c-2.16545,0.71663 -4.29911,1.53564 -6.40064,2.45685c-9.30187,3.95011 -17.41367,9.34083 -24.33525,16.17234l30.73589,30.73589zm0,-56.77615l0,-50.07504l-0.11537,-0.11537l-50.07504,0c0.69424,2.16545 1.48761,4.29911 2.38012,6.40064c4.14734,9.46132 9.72042,17.6914 16.71926,24.69023c6.99883,6.999 15.22908,12.57209 24.6904,16.71943c2.10153,0.8925 4.23519,1.68588 6.40064,2.38012l0,-0.00001zm-107.6743,57.36852l0,-49.95729c2.16545,0.71646 4.29911,1.53547 6.40064,2.45668c9.46132,4.01779 17.6914,9.5261 24.69023,16.52493c6.99883,6.99883 12.50731,15.22908 16.5251,24.6904c0.92121,2.10153 1.74022,4.23519 2.45685,6.40064l-49.95746,0l-0.11537,-0.11537zm0,-57.36852l0,-48.48096l30.22964,30.22964c-6.80997,6.60231 -14.75292,11.89271 -23.82901,15.87119c-2.10153,0.8925 -4.23519,1.68588 -6.40064,2.38012zm57.48389,57.48389l48.48096,0l-30.22964,-30.22964c-6.60231,6.80997 -11.89271,14.75292 -15.87119,23.82901c-0.8925,2.10153 -1.68588,4.23519 -2.38012,6.40064zm-21.55878,-71.74919c-7.54762,7.54745 -16.38854,13.54731 -26.46292,18.00708c10.07541,4.3333 18.91683,10.27093 26.46292,17.81702c7.54609,7.54609 13.48373,16.38752 17.81702,26.46292c4.45976,-10.07438 10.45962,-18.9153 18.00708,-26.46292c7.54609,-7.54609 16.38752,-13.48373 26.46292,-17.81702c-10.07438,-4.45976 -18.9153,-10.45962 -26.46292,-18.00708c-7.54745,-7.54762 -13.54731,-16.38854 -18.00708,-26.46292c-4.3333,10.07541 -10.27093,18.91683 -17.81702,26.46292z" fill="url(#paint0_linear_2043_180)" id="svg_3"/>
 </g>
</svg>
