<svg width="256" height="256" viewBox="0 0 67.733 67.733" xmlns="http://www.w3.org/2000/svg" class="fill-foreground">
    <path d="M27.109 26.045V20.58c0-.46.172-.805.575-1.035l10.986-6.327c1.495-.862 3.278-1.265 5.118-1.265 6.901 0 11.273 5.35 11.273 11.043 0 .402 0 .862-.058 1.323l-11.388-6.672c-.69-.402-1.38-.402-2.07 0zm25.65 21.28V34.269c0-.805-.344-1.38-1.034-1.783l-14.436-8.397 4.716-2.703c.402-.23.748-.23 1.15 0l10.985 6.326c3.163 1.84 5.291 5.752 5.291 9.547 0 4.371-2.587 8.397-6.671 10.065zM23.717 35.822l-4.717-2.76c-.402-.23-.575-.575-.575-1.036V19.374c0-6.154 4.717-10.813 11.1-10.813 2.416 0 4.659.806 6.558 2.243l-11.33 6.557c-.69.402-1.036.978-1.036 1.783v16.679zm10.15 5.866-6.757-3.795V29.84l6.758-3.796 6.757 3.796v8.052zm4.343 17.485c-2.416 0-4.658-.805-6.557-2.243l11.33-6.557c.69-.402 1.035-.978 1.035-1.783V31.91l4.774 2.76c.403.23.576.576.576 1.036V48.36c0 6.154-4.774 10.812-11.158 10.812zM24.58 46.347l-10.986-6.326c-3.164-1.84-5.291-5.751-5.291-9.547 0-4.429 2.645-8.397 6.728-10.065v13.113c0 .806.346 1.38 1.036 1.783l14.378 8.34-4.716 2.702c-.402.23-.747.23-1.15 0zm-.633 9.433c-6.5 0-11.273-4.89-11.273-10.928 0-.46.058-.92.115-1.38l11.33 6.557c.69.402 1.38.402 2.07 0l14.436-8.34v5.464c0 .46-.172.805-.575 1.035l-10.985 6.327c-1.496.862-3.279 1.265-5.119 1.265zm14.263 6.843c6.96 0 12.768-4.946 14.091-11.502 6.443-1.668 10.582-7.707 10.582-13.861 0-4.026-1.724-7.937-4.83-10.755.287-1.208.46-2.416.46-3.623 0-8.224-6.672-14.379-14.379-14.379-1.553 0-3.048.23-4.543.748C37 6.721 33.436 5.11 29.525 5.11c-6.96 0-12.768 4.946-14.091 11.503C8.992 18.28 4.85 24.32 4.85 30.473c0 4.027 1.725 7.937 4.831 10.755-.288 1.208-.46 2.416-.46 3.624 0 8.224 6.672 14.378 14.379 14.378 1.552 0 3.048-.23 4.543-.748 2.588 2.531 6.154 4.141 10.065 4.141z"/>
</svg>
