<svg width="100%" height="100%" viewBox="0 0 256 256" fill="none" xmlns="http://www.w3.org/2000/svg">
<path fill-rule="evenodd" clip-rule="evenodd" d="M156.017 109.562C156.416 109.562 156.515 109.761 156.316 110.06L149.546 121.92L128.437 159.095C128.437 159.295 128.238 159.295 128.039 159.295C127.84 159.295 127.74 159.295 127.641 159.095L99.6622 110.26C99.4631 109.961 99.6622 109.861 99.8613 109.861H101.654L156.117 109.662L156.017 109.562ZM105.138 44.5812C104.939 44.5812 104.84 44.5812 104.74 44.7805L81.5409 85.4434C81.3418 85.8421 80.9435 86.0414 80.4457 86.0414H57.2465C56.7487 86.0414 56.6491 86.2408 56.9478 86.6394L103.944 168.962C104.143 169.261 104.043 169.46 103.645 169.46H81.0431C80.3461 169.46 79.7487 169.859 79.45 170.557L68.7963 189.293C68.398 189.891 68.5972 190.29 69.3937 190.29H115.693C116.091 190.29 116.39 190.489 116.489 190.888L127.84 210.821C128.238 211.518 128.537 211.518 128.935 210.821L169.459 139.86L175.831 128.698C175.831 128.498 176.03 128.498 176.23 128.498C176.429 128.498 176.528 128.498 176.628 128.698L188.178 149.228C188.377 149.527 188.675 149.727 189.074 149.727L211.476 149.527C211.576 149.527 211.676 149.527 211.775 149.328C211.775 149.228 211.775 149.129 211.775 149.029L188.277 107.768C188.078 107.469 188.078 107.17 188.277 106.871L190.667 102.785L199.727 86.7391C199.927 86.4401 199.727 86.2408 199.429 86.2408H105.537C105.039 86.2408 104.939 86.0414 105.238 85.6428L116.887 65.3113C117.087 65.0123 117.087 64.7133 116.887 64.4143L105.835 44.9798C105.835 44.7805 105.636 44.6808 105.437 44.6808L105.138 44.5812ZM132.918 41.3919C136.104 46.9731 139.29 52.5543 142.377 58.2352C142.675 58.7335 143.074 58.9328 143.671 58.9328H188.576C189.97 58.9328 191.165 59.8298 192.16 61.6237L203.909 82.4535C205.403 85.1444 205.901 86.3404 204.108 89.2307C202.018 92.7189 199.927 96.2072 197.935 99.7951L194.948 105.177C194.052 106.772 193.156 107.469 194.65 109.363L216.156 146.936C217.55 149.328 217.052 150.923 215.857 153.215C212.273 159.593 208.689 165.872 205.005 172.151C203.71 174.344 202.117 175.141 199.528 175.141C193.256 175.041 186.983 175.141 180.71 175.241C180.411 175.241 180.212 175.44 180.013 175.639C172.745 188.496 165.476 201.253 158.108 214.01C156.714 216.402 155.022 217 152.234 217C144.169 217 136.004 217 127.84 217C126.147 217 124.952 216.302 124.056 214.807L113.203 195.971C113.104 195.672 112.805 195.572 112.506 195.572H71.0864C68.7963 195.772 66.6058 195.572 64.6145 194.875L51.6707 172.45C50.8742 170.955 50.8742 169.56 51.6707 168.065L61.4283 150.923C61.727 150.424 61.727 149.826 61.4283 149.328C56.3504 140.458 51.2724 131.688 46.2941 122.817L39.9218 111.555C38.6274 109.064 38.5278 107.569 40.7183 103.782C44.5019 97.2038 48.1859 90.626 51.9694 84.0482C53.0647 82.1545 54.4586 81.3572 56.6491 81.3572C63.6188 81.3572 70.5885 81.3572 77.6578 81.3572C78.0561 81.3572 78.3548 81.1579 78.5539 80.8589L101.255 41.1926C102.052 39.897 103.147 39.1993 104.641 39.1993C108.922 39.1993 113.203 39.1993 117.485 39.1993L125.749 39C128.537 39 131.623 39.299 133.017 41.7906L132.918 41.3919Z" fill="#615CED"/>
</svg>
