<?xml version="1.0" encoding="utf-8"?>
<!-- Generator: Adobe Illustrator 28.3.0, SVG Export Plug-In . SVG Version: 6.00 Build 0)  -->
<svg version="1.1" id="Layer_1" xmlns="http://www.w3.org/2000/svg" xmlns:xlink="http://www.w3.org/1999/xlink" x="0px" y="0px"
	 viewBox="0 0 101.9 29" fill="currentColor" xml:space="preserve">
<path class="st0" d="M33.3,29h-7.8l-2.4-5.7H10.3L8.1,29H0.5L12.1,0.1h8.3L33.3,29z M16.4,7l-4.3,11.2h8.9L16.4,7z"/>
<path class="st0" d="M61.4,0.1h6.3V29h-7.2V11l-7.8,9.1h-1.1L43.8,11v18h-7.2V0.1h6.3l9.3,10.7L61.4,0.1z"/>
<path class="st0" d="M85.9,0.1c10.5,0,16,6.6,16,14.5c0,8.3-5.2,14.4-16.8,14.4h-12V0.1H85.9z M80.4,23.7h4.7c7.2,0,9.4-4.9,9.4-9.1
	c0-5-2.7-9.1-9.5-9.1h-4.6V23.7z"/>
</svg>
