<svg width="100%" height="100%" viewBox="0 0 256 256" fill="none" xmlns="http://www.w3.org/2000/svg">
<path d="M237.715 62.2604C235.431 61.1505 234.458 63.2624 233.131 64.3416C232.668 64.6961 232.297 65.1432 231.912 65.5594C228.578 69.1051 224.688 71.4483 219.61 71.1708C212.185 70.7546 205.841 73.0823 200.238 78.7554C199.05 71.7566 195.083 67.5789 189.063 64.8965C185.915 63.5091 182.719 62.1063 180.512 59.0847C178.969 56.9265 178.552 54.5217 177.78 52.163C177.286 50.7294 176.792 49.2803 175.156 49.0336C173.366 48.7561 172.671 50.2515 171.961 51.5002C169.152 56.6182 168.071 62.2604 168.179 67.9643C168.426 80.8057 173.86 91.0418 184.649 98.3181C185.868 99.1506 186.192 99.983 185.806 101.201C185.066 103.714 184.201 106.149 183.429 108.647C182.936 110.25 182.21 110.589 180.481 109.895C174.554 107.429 169.445 103.775 164.923 99.351C157.251 91.9359 150.305 83.7501 141.662 77.3525C139.624 75.8572 137.602 74.4698 135.488 73.144C126.659 64.5882 136.645 57.5432 138.96 56.7107C141.384 55.8474 139.794 52.8413 131.984 52.8876C124.174 52.9184 117.027 55.5391 107.92 59.0077C106.593 59.5318 105.188 59.9172 103.753 60.2255C95.4794 58.6531 86.8974 58.314 77.9295 59.316C61.0433 61.1967 47.5529 69.1667 37.6434 82.7789C25.7274 99.1351 22.9336 117.727 26.3603 137.12C29.9721 157.546 40.4064 174.472 56.459 187.699C73.0982 201.419 92.2688 208.125 114.125 206.846C127.399 206.075 142.186 204.302 158.872 190.212C163.07 192.293 167.485 193.141 174.817 193.758C180.45 194.282 185.884 193.48 190.097 192.617C196.688 191.229 196.225 185.125 193.848 184.015C174.539 175.027 178.783 178.696 174.925 175.737C184.741 164.144 199.528 152.104 205.301 113.071C205.749 109.972 205.378 108.03 205.301 105.517C205.27 103.991 205.61 103.39 207.37 103.22C212.201 102.665 216.893 101.34 221.215 98.981C233.718 92.1518 238.765 80.9444 239.953 67.5172C240.123 65.4669 239.923 63.3395 237.746 62.2604H237.715ZM128.711 183.198C110.004 168.506 100.928 163.666 97.1772 163.882C93.6734 164.098 94.3063 168.09 95.078 170.711C95.8807 173.285 96.9303 175.058 98.4121 177.324C99.4308 178.82 100.125 181.055 97.3933 182.72C91.3736 186.451 80.893 181.471 80.3991 181.225C68.2053 174.056 58.018 164.591 50.8252 151.642C43.8947 139.186 39.8661 125.805 39.187 111.545C39.0172 108.092 40.0205 106.874 43.4625 106.257C47.9851 105.425 52.6465 105.24 57.169 105.903C76.2625 108.693 92.5158 117.218 106.145 130.722C113.925 138.415 119.805 147.603 125.871 156.59C132.323 166.132 139.254 175.212 148.083 182.658C151.201 185.264 153.686 187.252 156.078 188.717C148.901 189.518 136.908 189.688 128.711 183.213V183.198ZM137.679 125.589C137.679 124.063 138.899 122.845 140.442 122.845C140.797 122.845 141.106 122.906 141.384 123.014C141.77 123.153 142.125 123.369 142.403 123.677C142.896 124.17 143.174 124.864 143.174 125.589C143.174 127.115 141.955 128.333 140.411 128.333C138.868 128.333 137.679 127.115 137.679 125.589ZM165.54 139.864C163.75 140.588 161.959 141.22 160.246 141.298C157.575 141.436 154.674 140.357 153.099 139.031C150.645 136.981 148.901 135.825 148.16 132.248C147.851 130.722 148.021 128.348 148.299 126.992C148.932 124.063 148.222 122.182 146.169 120.486C144.486 119.099 142.356 118.713 139.995 118.713C139.115 118.713 138.312 118.328 137.71 118.02C136.722 117.526 135.92 116.308 136.692 114.813C136.938 114.32 138.127 113.148 138.405 112.932C141.6 111.129 145.274 111.714 148.669 113.071C151.818 114.366 154.211 116.725 157.637 120.07C161.141 124.109 161.774 125.219 163.765 128.256C165.339 130.63 166.775 133.065 167.763 135.84C168.365 137.582 167.593 139.001 165.525 139.879L165.54 139.864Z" fill="#4D6BFE"/>
</svg>
